<svg xmlns="http://www.w3.org/2000/svg" width="18" height="19" viewBox="0 0 18 19" fill="none">
<path d="M3.90674 10.25H12.2842L8.62424 13.91C8.33174 14.2025 8.33174 14.6825 8.62424 14.975C8.91674 15.2675 9.38924 15.2675 9.68174 14.975L14.6242 10.0325C14.9167 9.74003 14.9167 9.26753 14.6242 8.97503L9.68924 4.02503C9.54911 3.88459 9.35888 3.80566 9.16049 3.80566C8.9621 3.80566 8.77186 3.88459 8.63174 4.02503C8.33924 4.31753 8.33924 4.79003 8.63174 5.08253L12.2842 8.75003H3.90674C3.49424 8.75003 3.15674 9.08753 3.15674 9.50003C3.15674 9.91253 3.49424 10.25 3.90674 10.25Z" fill="white"/>
</svg>