<svg width="42" height="42" viewBox="0 0 42 42" fill="none" xmlns="http://www.w3.org/2000/svg">
<g clip-path="url(#clip0_22_767)">
<path fill-rule="evenodd" clip-rule="evenodd" d="M18.3207 21.0084H14.4V16.8084H18.3207V14.7C18.3207 13.0291 18.9844 11.4267 20.1659 10.2452C21.3474 9.06374 22.9498 8.39999 24.6207 8.39999H26.7207V12.6H24.6207C24.0637 12.6 23.5296 12.8212 23.1358 13.2151C22.7419 13.6089 22.5207 14.143 22.5207 14.7V16.8084H26.6829V21.0084H22.5207V33.6H18.3207V21.0084Z" fill="white"/>
<path fill-rule="evenodd" clip-rule="evenodd" d="M7.62353 -0.564697C5.60164 -0.564697 3.66257 0.238494 2.23288 1.66818C0.803191 3.09787 0 5.03695 0 7.05883V33.7412C0 35.7631 0.803191 37.7021 2.23288 39.1318C3.66257 40.5615 5.60164 41.3647 7.62353 41.3647H34.3059C36.3278 41.3647 38.2668 40.5615 39.6965 39.1318C41.1262 37.7021 41.9294 35.7631 41.9294 33.7412V7.05883C41.9294 5.03695 41.1262 3.09787 39.6965 1.66818C38.2668 0.238494 36.3278 -0.564697 34.3059 -0.564697H7.62353ZM34.3059 3.24707H7.62353C6.61259 3.24707 5.64305 3.64866 4.92821 4.36351C4.21336 5.07835 3.81176 6.04789 3.81176 7.05883V33.7412C3.81176 34.7521 4.21336 35.7217 4.92821 36.4365C5.64305 37.1514 6.61259 37.553 7.62353 37.553H34.3059C35.3168 37.553 36.2864 37.1514 37.0012 36.4365C37.7161 35.7217 38.1176 34.7521 38.1176 33.7412V7.05883C38.1176 6.04789 37.7161 5.07835 37.0012 4.36351C36.2864 3.64866 35.3168 3.24707 34.3059 3.24707Z" fill="white"/>
</g>
<defs>
<clipPath id="clip0_22_767">
<rect width="42" height="42" fill="white"/>
</clipPath>
</defs>
</svg>
