<svg width="42" height="42" viewBox="0 0 42 42" fill="none" xmlns="http://www.w3.org/2000/svg">
<g clip-path="url(#clip0_22_769)">
<path fill-rule="evenodd" clip-rule="evenodd" d="M21 11.7353C18.5428 11.7353 16.1863 12.7114 14.4489 14.4489C12.7114 16.1863 11.7353 18.5428 11.7353 21C11.7353 23.4571 12.7114 25.8137 14.4489 27.5511C16.1863 29.2886 18.5428 30.2647 21 30.2647C23.4571 30.2647 25.8137 29.2886 27.5511 27.5511C29.2886 25.8137 30.2647 23.4571 30.2647 21C30.2647 18.5428 29.2886 16.1863 27.5511 14.4489C25.8137 12.7114 23.4571 11.7353 21 11.7353ZM15.4412 21C15.4412 22.4743 16.0268 23.8882 17.0693 24.9307C18.1118 25.9732 19.5257 26.5588 21 26.5588C22.4743 26.5588 23.8882 25.9732 24.9307 24.9307C25.9732 23.8882 26.5588 22.4743 26.5588 21C26.5588 19.5257 25.9732 18.1118 24.9307 17.0693C23.8882 16.0268 22.4743 15.4412 21 15.4412C19.5257 15.4412 18.1118 16.0268 17.0693 17.0693C16.0268 18.1118 15.4412 19.5257 15.4412 21Z" fill="white"/>
<path d="M32.1177 8.02942C31.6262 8.02942 31.1549 8.22464 30.8074 8.57213C30.4599 8.91963 30.2647 9.39093 30.2647 9.88236C30.2647 10.3738 30.4599 10.8451 30.8074 11.1926C31.1549 11.5401 31.6262 11.7353 32.1177 11.7353C32.6091 11.7353 33.0804 11.5401 33.4279 11.1926C33.7754 10.8451 33.9706 10.3738 33.9706 9.88236C33.9706 9.39093 33.7754 8.91963 33.4279 8.57213C33.0804 8.22464 32.6091 8.02942 32.1177 8.02942Z" fill="white"/>
<path fill-rule="evenodd" clip-rule="evenodd" d="M8.02944 0.617645C6.06372 0.617645 4.17851 1.39853 2.78853 2.7885C1.39856 4.17848 0.617676 6.06369 0.617676 8.02941V33.9706C0.617676 35.9363 1.39856 37.8215 2.78853 39.2115C4.17851 40.6015 6.06372 41.3824 8.02944 41.3824H33.9706C35.9363 41.3824 37.8215 40.6015 39.2115 39.2115C40.6015 37.8215 41.3824 35.9363 41.3824 33.9706V8.02941C41.3824 6.06369 40.6015 4.17848 39.2115 2.7885C37.8215 1.39853 35.9363 0.617645 33.9706 0.617645H8.02944ZM33.9706 4.32353H8.02944C7.04658 4.32353 6.10397 4.71397 5.40899 5.40896C4.714 6.10394 4.32356 7.04655 4.32356 8.02941V33.9706C4.32356 34.9534 4.714 35.8961 5.40899 36.591C6.10397 37.286 7.04658 37.6765 8.02944 37.6765H33.9706C34.9535 37.6765 35.8961 37.286 36.5911 36.591C37.2861 35.8961 37.6765 34.9534 37.6765 33.9706V8.02941C37.6765 7.04655 37.2861 6.10394 36.5911 5.40896C35.8961 4.71397 34.9535 4.32353 33.9706 4.32353Z" fill="white"/>
</g>
<defs>
<clipPath id="clip0_22_769">
<rect width="42" height="42" fill="white"/>
</clipPath>
</defs>
</svg>
